<?xml version="1.0" encoding="UTF-8"?>
<svg id="Layer_1" xmlns="http://www.w3.org/2000/svg" version="1.1" viewBox="0 0 6697.1 6697.1">
  <!-- Generator: Adobe Illustrator 29.0.0, SVG Export Plug-In . SVG Version: 2.1.0 Build 186)  -->
  <defs>
    <style>
      .st0 {
        font-family: HelveticaNeue-Light, 'Helvetica Neue';
        font-size: 500px;
      }

      .st1 {
        fill: none;
        stroke-width: 10px;
      }

      .st1, .st2, .st3, .st4 {
        stroke: #284566;
        stroke-miterlimit: 10;
      }

      .st5 {
        fill: #284566;
      }

      .st2 {
        fill: #1d8649;
      }

      .st2, .st3, .st4 {
        stroke-width: 20px;
      }

      .st6 {
        font-family: HelveticaNeue-LightItalic, 'Helvetica Neue';
        font-size: 400px;
        font-style: italic;
      }

      .st3 {
        fill: #ff5733;
      }

      .st7 {
        opacity: .4;
      }

      .st8 {
        opacity: 0;
      }

      .st4 {
        fill: #2a7de1;
      }

      .st9 {
        font-weight: 300;
      }
    </style>
  </defs>
  <circle class="st1" cx="3348.6" cy="3348.9" r="2236.1"/>
  <circle class="st4" cx="3313.8" cy="1108.1" r="299.4"/>
  <circle class="st2" cx="5588.8" cy="3370.9" r="299.4"/>
  <circle class="st2" cx="3299.4" cy="5589" r="299.4"/>
  <circle class="st3" cx="1108.3" cy="3387.6" r="299.4"/>
  <circle class="st4" cx="4916.8" cy="4948.4" r="299.4"/>
  <circle class="st3" cx="1729.5" cy="4898.1" r="299.4"/>
  <circle class="st4" cx="1736.8" cy="1792.1" r="299.4"/>
  <circle class="st2" cx="4908.2" cy="1739.7" r="299.4"/>
  <g class="st8">
    <path class="st5" d="M3626.2,2768.3c93.1-59.9,201.2-104.6,311-122.4,429.9-69.8,825.3,232.6,804.6,681.5-17.8,386.6-452,648.5-787.8,430.8-4.4-2.9-23.9-24.6-27.3-19-3,4.8,52.8,85.3,55.6,99.4,245.6,489.6-112,1092.1-678.4,1006.3-366.8-55.6-579-502.9-347-807.5-31.9,16.4-61.5,36.4-94.1,51.8-448.5,212-1003.4-33.7-1021.5-558.3-13.8-400.1,416.6-713.9,771.7-495.5,4.3,2.7,41.4,34.1,44.4,31,3-3.1-37.5-65.9-41.6-74.1-145.8-285.8-121.1-640.4,121.1-864.5,235.8-218.2,627.5-252,852.2,1.9,137.5,155.3,181,397.9,74.1,582-4.5,7.6-41.1,51.7-36.9,56.6h0ZM3150.4,2016.5c1.5,3.2,52.7,28.1,61.5,33.9,103.2,67.2,205.1,179.3,239,300.4,13.1,46.6,5.9,145.8,48.8,35.9,18.5-47.5,27.6-112.3,28.1-163.2.1-10.8-1.5-68.9-4-74.8-5.7-13.4-72.3-61.6-87.9-71.1-72-43.5-164.2-69.2-248.8-68.9-8.4,0-40.2.2-36.8,7.7h0ZM3305.5,2213.4c-55.4-69.6-200.5-179.1-291.7-177.8-18,.2-105.4,41.8-125,53-472,269.9-344.1,953.1,96.6,1190,58.8,31.6,205.8,87.8,270.1,86,3.4-.1,7.3.7,8.6-3.4,18.6-187.7,105.6-358.3,235.5-492.2-209.4,115.8-496.6,30.5-552.5-216.8-49.8-220.7,139-445.2,363.4-362.2,8,2.9,56.1,33.4,58.5,31,7.8-7.6-55.1-97.2-63.4-107.6h0ZM3594,2238.5c-10.6,8.2-4.7,30.7-6.2,43.1-16,137.3-80.8,242.4-175.9,339.3-82.6,84.2-233.5,63.3-283.1-46.1-40-87.9-7-177.8,69.3-231.6-205.9,27-256.2,262.7-132.6,411.8,122.3,147.6,345.4,128.2,478.3,6.1,149-136.9,150.4-356.1,50.2-522.7h0ZM3267.9,2380c-140.8,18.5-119.8,240.8,27.5,227,34-3.2,43.9-9.8,63.6-26.6,23.9-20.6,37.3-49.8,40.4-87,6.1-74-57-123.1-131.4-113.3h0ZM4367.8,3477.4c4.9,4.6,83.1-42.8,92.3-49.5,78.9-57.8,182-196.8,190.9-296.1,5-55.3-83.6-189.8-121.4-232.6-359.3-406.5-1021.9-159.9-1172.1,322-6.7,21.6-33.4,130.7-28.3,145.9,3.5,10.5,56,11.1,68.7,13.7,119.8,24.5,228,75.2,327.7,144.9l93.5,80.5c-93.8-181.8-53.8-415.8,133.4-517.9,236.8-129.2,534.9,61.7,448.5,324.6-3.4,10.3-35.8,62-33.2,64.4h0ZM2235.4,3493.5c42.5,278,408.1,249.4,497.4,14.1,101.6-267.5-149.7-509.2-417.6-476.9-22.4,2.7-149.5,36.4-157.8,52.3-.7,1.3-.7,5.4-.5,5.6,3.2,2.9,72.5,7.7,85.3,10.2,110.6,22,221.2,99.4,283.4,193.4,125.2,189.3-95.9,373.3-248.1,246.6-16-13.3-27.6-30.8-42.2-45.3h0ZM4343.8,3304.1c7.5,3.5.7-32-.6-36.7-48.8-183.7-278.9-205.7-410.5-92.2-207.6,178.9-74.7,517.8,170.6,582.5,82.1,21.7,257.3,13.5,324.8-43.8,2.1-1.7,6.7-6.7,4.2-8.9s-55.4-2.4-67.1-4.3c-115.7-18.5-211.6-77.6-284.6-168-182.8-226.4,101.7-422.3,251.1-249.6,3.8,4.4,11.1,20.6,12.2,21.1h0ZM2082.2,3149.7c-7.5.6-22.2.5-27.7,2.5-3.8,1.3-41,43.8-46.2,50.4-57.3,72.3-96.3,171.3-102.6,263.8-.4,6.3-2.5,72.9,1.1,73.6,4.1.8,37.7-63.3,43.2-71.5,77.8-116.5,201.6-217.6,342.9-240.5,8.5-1.4,70.3-3.8,71.1-7.3,1.3-5.8-68.2-40.3-77-43.7-58.7-22.4-142.2-32.6-204.8-27.2h0ZM3022.5,3899.7c93.3-87.9,168.1-203.2,205.3-327.1,6.6-21.9,31.5-128.3,26.2-144.1-2.5-7.6-22.9-4.2-30.6-5.6-174.8-31.7-331.8-102.8-456.4-231.5-4.9-.7-2.5,1.7-2.2,4.3,2.2,18.8,32.8,76.3,39,103.9,49.8,221.5-89.9,440.4-322.2,453.8-215.6,12.5-387.5-212.8-279.8-409.3,1.8-3.3,18.8-24.6,17.5-25.8-6.6-5.9-97.5,53.1-108.4,61.6-73.6,57.1-171.7,193.3-178.9,288-2.6,34.4,49.1,130,69.5,161.7,229,356.2,731.2,342.8,1021,70.1h0ZM4675.3,3261.8c-1.2-1.4-4.9.3-6.9,2.2-4.5,4.4-25.7,51.1-32.6,62-75.6,118.3-204.7,221.8-345.5,245.9-14.5,2.5-56.1.8-65.9,4.5-3.4,1.3-4.6,4.5-3.1,7.4,4.4,8.9,89.9,46,103.9,50,36.7,10.4,176.5,28,205.3,11.6,61-34.8,132.7-201.6,142.7-270,2.2-14.8,7.6-107.3,2.1-113.7h0ZM4182.2,3274.6c-143.4,13.8-134,248.2,31.7,228.8,140.5-16.5,113.6-242.7-31.7-228.8ZM2383.6,3290.4c-147,7.2-138,229.1,5.3,229.3,152.5.2,146.2-236.7-5.3-229.3ZM3577.1,3508.4c-42.9-21.1-91.1-40.4-137.4-52.7-16.7-4.5-116.1-26.1-124.8-20.4-2.1,1.4-1.6,32-2.4,36.9-24.9,148.4-84.7,285.6-180.8,401-15.6,18.7-35.7,34.7-50.2,54.4,130-63.5,289.7-74.6,412.7,11.5,151.7,106.2,209.7,335.1,82.8,483.1-73.6,85.8-206.5,124.9-312.9,82-7.6-3.1-49.7-31.7-51.8-29.6-5.3,5.1,54.9,98,62.4,107.7,56.1,72.6,193.2,171.9,286.2,178.5,83.9,5.9,249.1-130,300.6-194.6,277.2-347.9,93.8-871.4-284.1-1057.7h0ZM3389,4456.4c99.5-6.2,184.9-95.9,194.7-194.6,16.1-162-107.9-309.9-270.2-321-235.4-16.1-408.5,182.2-393,412,2.2,32.7,34.2,171.1,57.5,190.1,9,7.3,4.1-22.6,5-31,10.8-105.5,49.3-199.3,122.5-276.1,73.2-76.8,170.8-142.5,275.2-84.4,117.4,65.3,116.6,231.1,8.2,305h0ZM3278,4191c-131.1,17.9-120.1,228.9,19.6,227.3,158.8-1.8,141.9-249.4-19.6-227.3ZM3115.7,4323.5c-4.5-.1-8.4,8.7-10.8,12.3-41.8,63.1-60,147-61.6,222.3-1.2,56.7-7.5,71.9,34.2,110.9,80.4,75.1,206.9,120.8,316.5,119.9,75.6-.6,6.3-19.7-18.8-35.5-144.7-90.8-264.8-251.9-259.5-429.9h0Z"/>
  </g>
  <g class="st7">
    <path class="st5" d="M3362.3,1017.5c13.3-8.5,28.7-14.9,44.4-17.5,61.4-10,117.8,33.2,114.9,97.3-2.5,55.2-64.5,92.6-112.5,61.5-.6-.4-3.4-3.5-3.9-2.7-.4.7,7.5,12.2,7.9,14.2,35.1,69.9-16,155.9-96.9,143.7-52.4-7.9-82.7-71.8-49.5-115.3-4.6,2.3-8.8,5.2-13.4,7.4-64,30.3-143.3-4.8-145.9-79.7-2-57.1,59.5-101.9,110.2-70.7.6.4,5.9,4.9,6.3,4.4s-5.4-9.4-5.9-10.6c-20.8-40.8-17.3-91.4,17.3-123.4,33.7-31.2,89.6-36,121.7.3,19.6,22.2,25.8,56.8,10.6,83.1-.6,1.1-5.9,7.4-5.3,8.1h0ZM3294.3,910.2c.2.5,7.5,4,8.8,4.8,14.7,9.6,29.3,25.6,34.1,42.9,1.9,6.7.8,20.8,7,5.1,2.6-6.8,3.9-16,4-23.3,0-1.5-.2-9.8-.6-10.7-.8-1.9-10.3-8.8-12.5-10.1-10.3-6.2-23.4-9.9-35.5-9.8-1.2,0-5.7,0-5.2,1.1h0ZM3316.5,938.3c-7.9-9.9-28.6-25.6-41.7-25.4-2.6,0-15.1,6-17.9,7.6-67.4,38.5-49.1,136.1,13.8,169.9,8.4,4.5,29.4,12.5,38.6,12.3.5,0,1,.1,1.2-.5,2.7-26.8,15.1-51.2,33.6-70.3-29.9,16.5-70.9,4.4-78.9-31-7.1-31.5,19.8-63.6,51.9-51.7,1.1.4,8,4.8,8.3,4.4,1.1-1.1-7.9-13.9-9.1-15.4h0ZM3357.7,941.9c-1.5,1.2-.7,4.4-.9,6.2-2.3,19.6-11.5,34.6-25.1,48.5-11.8,12-33.3,9-40.4-6.6-5.7-12.6-1-25.4,9.9-33.1-29.4,3.9-36.6,37.5-18.9,58.8,17.5,21.1,49.3,18.3,68.3.9,21.3-19.5,21.5-50.8,7.2-74.6h0ZM3311.1,962.1c-20.1,2.6-17.1,34.4,3.9,32.4,4.9-.5,6.3-1.4,9.1-3.8,3.4-2.9,5.3-7.1,5.8-12.4.9-10.6-8.1-17.6-18.8-16.2h0ZM3468.2,1118.8c.7.7,11.9-6.1,13.2-7.1,11.3-8.3,26-28.1,27.3-42.3.7-7.9-11.9-27.1-17.3-33.2-51.3-58-145.9-22.8-167.4,46-1,3.1-4.8,18.7-4,20.8.5,1.5,8,1.6,9.8,2,17.1,3.5,32.6,10.7,46.8,20.7l13.3,11.5c-13.4-26-7.7-59.4,19-74,33.8-18.5,76.4,8.8,64,46.3-.5,1.5-5.1,8.8-4.7,9.2h0ZM3163.7,1121.1c6.1,39.7,58.3,35.6,71,2,14.5-38.2-21.4-72.7-59.6-68.1-3.2.4-21.4,5.2-22.5,7.5-.1.2-.1.8,0,.8.5.4,10.3,1.1,12.2,1.5,15.8,3.1,31.6,14.2,40.5,27.6,17.9,27-13.7,53.3-35.4,35.2-2.3-1.9-3.9-4.4-6-6.5h0ZM3464.8,1094c1.1.5.1-4.6,0-5.2-7-26.2-39.8-29.4-58.6-13.2-29.6,25.5-10.7,73.9,24.4,83.2,11.7,3.1,36.7,1.9,46.4-6.3.3-.2,1-1,.6-1.3s-7.9-.3-9.6-.6c-16.5-2.6-30.2-11.1-40.6-24-26.1-32.3,14.5-60.3,35.9-35.6.5.6,1.6,2.9,1.7,3h0ZM3141.8,1072c-1.1,0-3.2,0-4,.4-.5.2-5.9,6.3-6.6,7.2-8.2,10.3-13.7,24.5-14.7,37.7,0,.9-.4,10.4.2,10.5.6.1,5.4-9,6.2-10.2,11.1-16.6,28.8-31.1,49-34.3,1.2-.2,10-.5,10.2-1,.2-.8-9.7-5.8-11-6.2-8.4-3.2-20.3-4.7-29.2-3.9h0ZM3276.1,1179.1c13.3-12.5,24-29,29.3-46.7.9-3.1,4.5-18.3,3.7-20.6-.4-1.1-3.3-.6-4.4-.8-25-4.5-47.4-14.7-65.2-33.1-.7-.1-.4.2-.3.6.3,2.7,4.7,10.9,5.6,14.8,7.1,31.6-12.8,62.9-46,64.8-30.8,1.8-55.3-30.4-39.9-58.4.3-.5,2.7-3.5,2.5-3.7-.9-.8-13.9,7.6-15.5,8.8-10.5,8.2-24.5,27.6-25.5,41.1-.4,4.9,7,18.6,9.9,23.1,32.7,50.9,104.4,49,145.8,10h0ZM3512.1,1088c-.2-.2-.7,0-1,.3-.6.6-3.7,7.3-4.7,8.9-10.8,16.9-29.2,31.7-49.3,35.1-2.1.4-8,.1-9.4.6-.5.2-.7.6-.4,1.1.6,1.3,12.8,6.6,14.8,7.1,5.2,1.5,25.2,4,29.3,1.7,8.7-5,19-28.8,20.4-38.5.3-2.1,1.1-15.3.3-16.2h0ZM3441.7,1089.8c-20.5,2-19.1,35.4,4.5,32.7,20.1-2.4,16.2-34.7-4.5-32.7ZM3184.9,1092.1c-21,1-19.7,32.7.8,32.7,21.8,0,20.9-33.8-.8-32.7ZM3355.3,1123.2c-6.1-3-13-5.8-19.6-7.5-2.4-.6-16.6-3.7-17.8-2.9-.3.2-.2,4.6-.3,5.3-3.6,21.2-12.1,40.8-25.8,57.3-2.2,2.7-5.1,5-7.2,7.8,18.6-9.1,41.4-10.7,58.9,1.6,21.7,15.2,29.9,47.8,11.8,69-10.5,12.3-29.5,17.8-44.7,11.7-1.1-.4-7.1-4.5-7.4-4.2-.8.7,7.8,14,8.9,15.4,8,10.4,27.6,24.5,40.9,25.5,12,.8,35.6-18.6,42.9-27.8,39.6-49.7,13.4-124.4-40.6-151h0ZM3328.4,1258.6c14.2-.9,26.4-13.7,27.8-27.8,2.3-23.1-15.4-44.3-38.6-45.8-33.6-2.3-58.3,26-56.1,58.8.3,4.7,4.9,24.4,8.2,27.1,1.3,1,.6-3.2.7-4.4,1.5-15.1,7-28.5,17.5-39.4s24.4-20.3,39.3-12.1c16.8,9.3,16.6,33,1.2,43.6h0ZM3312.6,1220.7c-18.7,2.6-17.1,32.7,2.8,32.5,22.7-.3,20.3-35.6-2.8-32.5ZM3289.4,1239.6c-.6,0-1.2,1.2-1.5,1.8-6,9-8.6,21-8.8,31.7-.2,8.1-1.1,10.3,4.9,15.8,11.5,10.7,29.5,17.3,45.2,17.1,10.8,0,.9-2.8-2.7-5.1-20.7-13-37.8-36-37.1-61.4h0Z"/>
  </g>
  <g class="st7">
    <path class="st5" d="M5637.3,3280.4c13.3-8.5,28.7-14.9,44.4-17.5,61.4-10,117.8,33.2,114.9,97.3-2.5,55.2-64.5,92.6-112.5,61.5-.6-.4-3.4-3.5-3.9-2.7-.4.7,7.5,12.2,7.9,14.2,35.1,69.9-16,155.9-96.9,143.7-52.4-7.9-82.7-71.8-49.5-115.3-4.6,2.3-8.8,5.2-13.4,7.4-64,30.3-143.3-4.8-145.9-79.7-2-57.1,59.5-101.9,110.2-70.7.6.4,5.9,4.9,6.3,4.4s-5.4-9.4-5.9-10.6c-20.8-40.8-17.3-91.4,17.3-123.4,33.7-31.2,89.6-36,121.7.3,19.6,22.2,25.8,56.8,10.6,83.1-.6,1.1-5.9,7.4-5.3,8.1h0ZM5569.4,3173c.2.5,7.5,4,8.8,4.8,14.7,9.6,29.3,25.6,34.1,42.9,1.9,6.7.8,20.8,7,5.1,2.6-6.8,3.9-16,4-23.3,0-1.5-.2-9.8-.6-10.7-.8-1.9-10.3-8.8-12.5-10.1-10.3-6.2-23.4-9.9-35.5-9.8-1.2,0-5.7,0-5.2,1.1h0ZM5591.5,3201.1c-7.9-9.9-28.6-25.6-41.7-25.4-2.6,0-15.1,6-17.9,7.6-67.4,38.5-49.1,136.1,13.8,169.9,8.4,4.5,29.4,12.5,38.6,12.3.5,0,1,.1,1.2-.5,2.7-26.8,15.1-51.2,33.6-70.3-29.9,16.5-70.9,4.4-78.9-31-7.1-31.5,19.8-63.6,51.9-51.7,1.1.4,8,4.8,8.3,4.4,1.1-1.1-7.9-13.9-9.1-15.4h0ZM5632.7,3204.7c-1.5,1.2-.7,4.4-.9,6.2-2.3,19.6-11.5,34.6-25.1,48.5-11.8,12-33.3,9-40.4-6.6-5.7-12.6-1-25.4,9.9-33.1-29.4,3.9-36.6,37.5-18.9,58.8,17.5,21.1,49.3,18.3,68.3.9,21.3-19.5,21.5-50.8,7.2-74.6h0ZM5586.1,3224.9c-20.1,2.6-17.1,34.4,3.9,32.4,4.9-.5,6.3-1.4,9.1-3.8,3.4-2.9,5.3-7.1,5.8-12.4.9-10.6-8.1-17.6-18.8-16.2h0ZM5743.2,3381.6c.7.7,11.9-6.1,13.2-7.1,11.3-8.3,26-28.1,27.3-42.3.7-7.9-11.9-27.1-17.3-33.2-51.3-58-145.9-22.8-167.4,46-1,3.1-4.8,18.7-4,20.8.5,1.5,8,1.6,9.8,2,17.1,3.5,32.6,10.7,46.8,20.7l13.3,11.5c-13.4-26-7.7-59.4,19-74,33.8-18.5,76.4,8.8,64,46.3-.5,1.5-5.1,8.8-4.7,9.2h0ZM5438.7,3383.9c6.1,39.7,58.3,35.6,71,2,14.5-38.2-21.4-72.7-59.6-68.1-3.2.4-21.4,5.2-22.5,7.5-.1.2-.1.8,0,.8.5.4,10.3,1.1,12.2,1.5,15.8,3.1,31.6,14.2,40.5,27.6,17.9,27-13.7,53.3-35.4,35.2-2.3-1.9-3.9-4.4-6-6.5h0ZM5739.8,3356.9c1.1.5.1-4.6,0-5.2-7-26.2-39.8-29.4-58.6-13.2-29.6,25.5-10.7,73.9,24.4,83.2,11.7,3.1,36.7,1.9,46.4-6.3.3-.2,1-1,.6-1.3s-7.9-.3-9.6-.6c-16.5-2.6-30.2-11.1-40.6-24-26.1-32.3,14.5-60.3,35.9-35.6.5.6,1.6,2.9,1.7,3h0ZM5416.8,3334.8c-1.1,0-3.2,0-4,.4-.5.2-5.9,6.3-6.6,7.2-8.2,10.3-13.7,24.5-14.7,37.7,0,.9-.4,10.4.2,10.5.6.1,5.4-9,6.2-10.2,11.1-16.6,28.8-31.1,49-34.3,1.2-.2,10-.5,10.2-1,.2-.8-9.7-5.8-11-6.2-8.4-3.2-20.3-4.7-29.2-3.9h0ZM5551.1,3441.9c13.3-12.5,24-29,29.3-46.7.9-3.1,4.5-18.3,3.7-20.6-.4-1.1-3.3-.6-4.4-.8-25-4.5-47.4-14.7-65.2-33.1-.7-.1-.4.2-.3.6.3,2.7,4.7,10.9,5.6,14.8,7.1,31.6-12.8,62.9-46,64.8-30.8,1.8-55.3-30.4-39.9-58.4.3-.5,2.7-3.5,2.5-3.7-.9-.8-13.9,7.6-15.5,8.8-10.5,8.2-24.5,27.6-25.5,41.1-.4,4.9,7,18.6,9.9,23.1,32.7,50.9,104.4,49,145.8,10h0ZM5787.1,3350.8c-.2-.2-.7,0-1,.3-.6.6-3.7,7.3-4.7,8.9-10.8,16.9-29.2,31.7-49.3,35.1-2.1.4-8,.1-9.4.6-.5.2-.7.6-.4,1.1.6,1.3,12.8,6.6,14.8,7.1,5.2,1.5,25.2,4,29.3,1.7,8.7-5,19-28.8,20.4-38.5.3-2.1,1.1-15.3.3-16.2h0ZM5716.7,3352.7c-20.5,2-19.1,35.4,4.5,32.7,20.1-2.4,16.2-34.7-4.5-32.7ZM5459.9,3354.9c-21,1-19.7,32.7.8,32.7,21.8,0,20.9-33.8-.8-32.7ZM5630.3,3386c-6.1-3-13-5.8-19.6-7.5-2.4-.6-16.6-3.7-17.8-2.9-.3.2-.2,4.6-.3,5.3-3.6,21.2-12.1,40.8-25.8,57.3-2.2,2.7-5.1,5-7.2,7.8,18.6-9.1,41.4-10.7,58.9,1.6,21.7,15.2,29.9,47.8,11.8,69-10.5,12.3-29.5,17.8-44.7,11.7-1.1-.4-7.1-4.5-7.4-4.2-.8.7,7.8,14,8.9,15.4,8,10.4,27.6,24.5,40.9,25.5,12,.8,35.6-18.6,42.9-27.8,39.6-49.7,13.4-124.4-40.6-151h0ZM5603.4,3521.4c14.2-.9,26.4-13.7,27.8-27.8,2.3-23.1-15.4-44.3-38.6-45.8-33.6-2.3-58.3,26-56.1,58.8.3,4.7,4.9,24.4,8.2,27.1,1.3,1,.6-3.2.7-4.4,1.5-15.1,7-28.5,17.5-39.4,10.4-11,24.4-20.3,39.3-12.1,16.8,9.3,16.6,33,1.2,43.6h0ZM5587.6,3483.5c-18.7,2.6-17.1,32.7,2.8,32.5,22.7-.3,20.3-35.6-2.8-32.5ZM5564.4,3502.4c-.6,0-1.2,1.2-1.5,1.8-6,9-8.6,21-8.8,31.7-.2,8.1-1.1,10.3,4.9,15.8,11.5,10.7,29.5,17.3,45.2,17.1,10.8,0,.9-2.8-2.7-5.1-20.7-13-37.8-36-37.1-61.4h0Z"/>
  </g>
  <g class="st7">
    <path class="st5" d="M3348,5498.5c13.3-8.5,28.7-14.9,44.4-17.5,61.4-10,117.8,33.2,114.9,97.3-2.5,55.2-64.5,92.6-112.5,61.5-.6-.4-3.4-3.5-3.9-2.7-.4.7,7.5,12.2,7.9,14.2,35.1,69.9-16,155.9-96.9,143.7-52.4-7.9-82.7-71.8-49.5-115.3-4.6,2.3-8.8,5.2-13.4,7.4-64,30.3-143.3-4.8-145.9-79.7-2-57.1,59.5-101.9,110.2-70.7.6.4,5.9,4.9,6.3,4.4s-5.4-9.4-5.9-10.6c-20.8-40.8-17.3-91.4,17.3-123.4,33.7-31.2,89.6-36,121.7.3,19.6,22.2,25.8,56.8,10.6,83.1-.6,1.1-5.9,7.4-5.3,8.1h0ZM3280,5391.2c.2.5,7.5,4,8.8,4.8,14.7,9.6,29.3,25.6,34.1,42.9,1.9,6.7.8,20.8,7,5.1,2.6-6.8,3.9-16,4-23.3,0-1.5-.2-9.8-.6-10.7-.8-1.9-10.3-8.8-12.5-10.1-10.3-6.2-23.4-9.9-35.5-9.8-1.2,0-5.7,0-5.2,1.1h0ZM3302.2,5419.3c-7.9-9.9-28.6-25.6-41.7-25.4-2.6,0-15.1,6-17.9,7.6-67.4,38.5-49.1,136.1,13.8,169.9,8.4,4.5,29.4,12.5,38.6,12.3.5,0,1,.1,1.2-.5,2.7-26.8,15.1-51.2,33.6-70.3-29.9,16.5-70.9,4.4-78.9-31-7.1-31.5,19.8-63.6,51.9-51.7,1.1.4,8,4.8,8.3,4.4,1.1-1.1-7.9-13.9-9.1-15.4h0ZM3343.4,5422.9c-1.5,1.2-.7,4.4-.9,6.2-2.3,19.6-11.5,34.6-25.1,48.5-11.8,12-33.3,9-40.4-6.6-5.7-12.6-1-25.4,9.9-33.1-29.4,3.9-36.6,37.5-18.9,58.8,17.5,21.1,49.3,18.3,68.3.9,21.3-19.5,21.5-50.8,7.2-74.6h0ZM3296.8,5443.1c-20.1,2.6-17.1,34.4,3.9,32.4,4.9-.5,6.3-1.4,9.1-3.8,3.4-2.9,5.3-7.1,5.8-12.4.9-10.6-8.1-17.6-18.8-16.2h0ZM3453.9,5599.8c.7.7,11.9-6.1,13.2-7.1,11.3-8.3,26-28.1,27.3-42.3.7-7.9-11.9-27.1-17.3-33.2-51.3-58-145.9-22.8-167.4,46-1,3.1-4.8,18.7-4,20.8.5,1.5,8,1.6,9.8,2,17.1,3.5,32.6,10.7,46.8,20.7l13.3,11.5c-13.4-26-7.7-59.4,19-74,33.8-18.5,76.4,8.8,64,46.3-.5,1.5-5.1,8.8-4.7,9.2h0ZM3149.4,5602.1c6.1,39.7,58.3,35.6,71,2,14.5-38.2-21.4-72.7-59.6-68.1-3.2.4-21.4,5.2-22.5,7.5-.1.2-.1.8,0,.8.5.4,10.3,1.1,12.2,1.5,15.8,3.1,31.6,14.2,40.5,27.6,17.9,27-13.7,53.3-35.4,35.2-2.3-1.9-3.9-4.4-6-6.5h0ZM3450.4,5575c1.1.5.1-4.6,0-5.2-7-26.2-39.8-29.4-58.6-13.2-29.6,25.5-10.7,73.9,24.4,83.2,11.7,3.1,36.7,1.9,46.4-6.3.3-.2,1-1,.6-1.3s-7.9-.3-9.6-.6c-16.5-2.6-30.2-11.1-40.6-24-26.1-32.3,14.5-60.3,35.9-35.6.5.6,1.6,2.9,1.7,3h0ZM3127.5,5553c-1.1,0-3.2,0-4,.4-.5.2-5.9,6.3-6.6,7.2-8.2,10.3-13.7,24.5-14.7,37.7,0,.9-.4,10.4.2,10.5.6.1,5.4-9,6.2-10.2,11.1-16.6,28.8-31.1,49-34.3,1.2-.2,10-.5,10.2-1,.2-.8-9.7-5.8-11-6.2-8.4-3.2-20.3-4.7-29.2-3.9h0ZM3261.8,5660.1c13.3-12.5,24-29,29.3-46.7.9-3.1,4.5-18.3,3.7-20.6-.4-1.1-3.3-.6-4.4-.8-25-4.5-47.4-14.7-65.2-33.1-.7-.1-.4.2-.3.6.3,2.7,4.7,10.9,5.6,14.8,7.1,31.6-12.8,62.9-46,64.8-30.8,1.8-55.3-30.4-39.9-58.4.3-.5,2.7-3.5,2.5-3.7-.9-.8-13.9,7.6-15.5,8.8-10.5,8.2-24.5,27.6-25.5,41.1-.4,4.9,7,18.6,9.9,23.1,32.7,50.9,104.4,49,145.8,10h0ZM3497.8,5569c-.2-.2-.7,0-1,.3-.6.6-3.7,7.3-4.7,8.9-10.8,16.9-29.2,31.7-49.3,35.1-2.1.4-8,.1-9.4.6-.5.2-.7.6-.4,1.1.6,1.3,12.8,6.6,14.8,7.1,5.2,1.5,25.2,4,29.3,1.7,8.7-5,19-28.8,20.4-38.5.3-2.1,1.1-15.3.3-16.2h0ZM3427.3,5570.8c-20.5,2-19.1,35.4,4.5,32.7,20.1-2.4,16.2-34.7-4.5-32.7ZM3170.5,5573.1c-21,1-19.7,32.7.8,32.7,21.8,0,20.9-33.8-.8-32.7ZM3340.9,5604.2c-6.1-3-13-5.8-19.6-7.5-2.4-.6-16.6-3.7-17.8-2.9-.3.2-.2,4.6-.3,5.3-3.6,21.2-12.1,40.8-25.8,57.3-2.2,2.7-5.1,5-7.2,7.8,18.6-9.1,41.4-10.7,58.9,1.6,21.7,15.2,29.9,47.8,11.8,69-10.5,12.3-29.5,17.8-44.7,11.7-1.1-.4-7.1-4.5-7.4-4.2-.8.7,7.8,14,8.9,15.4,8,10.4,27.6,24.5,40.9,25.5,12,.8,35.6-18.6,42.9-27.8,39.6-49.7,13.4-124.4-40.6-151h0ZM3314.1,5739.6c14.2-.9,26.4-13.7,27.8-27.8,2.3-23.1-15.4-44.3-38.6-45.8-33.6-2.3-58.3,26-56.1,58.8.3,4.7,4.9,24.4,8.2,27.1,1.3,1,.6-3.2.7-4.4,1.5-15.1,7-28.5,17.5-39.4,10.4-11,24.4-20.3,39.3-12.1,16.8,9.3,16.6,33,1.2,43.6h0ZM3298.2,5701.7c-18.7,2.6-17.1,32.7,2.8,32.5,22.7-.3,20.3-35.6-2.8-32.5ZM3275.1,5720.6c-.6,0-1.2,1.2-1.5,1.8-6,9-8.6,21-8.8,31.7-.2,8.1-1.1,10.3,4.9,15.8,11.5,10.7,29.5,17.3,45.2,17.1,10.8,0,.9-2.8-2.7-5.1-20.7-13-37.8-36-37.1-61.4h0Z"/>
  </g>
  <g class="st7">
    <path class="st5" d="M1156.9,3297.1c13.3-8.5,28.7-14.9,44.4-17.5,61.4-10,117.8,33.2,114.9,97.3-2.5,55.2-64.5,92.6-112.5,61.5-.6-.4-3.4-3.5-3.9-2.7-.4.7,7.5,12.2,7.9,14.2,35.1,69.9-16,155.9-96.9,143.7-52.4-7.9-82.7-71.8-49.5-115.3-4.6,2.3-8.8,5.2-13.4,7.4-64,30.3-143.3-4.8-145.9-79.7-2-57.1,59.5-101.9,110.2-70.7.6.4,5.9,4.9,6.3,4.4s-5.4-9.4-5.9-10.6c-20.8-40.8-17.3-91.4,17.3-123.4,33.7-31.2,89.6-36,121.7.3,19.6,22.2,25.8,56.8,10.6,83.1-.6,1.1-5.9,7.4-5.3,8.1h0ZM1088.9,3189.8c.2.5,7.5,4,8.8,4.8,14.7,9.6,29.3,25.6,34.1,42.9,1.9,6.7.8,20.8,7,5.1,2.6-6.8,3.9-16,4-23.3,0-1.5-.2-9.8-.6-10.7-.8-1.9-10.3-8.8-12.5-10.1-10.3-6.2-23.4-9.9-35.5-9.8-1.2,0-5.7,0-5.2,1.1h0ZM1111.1,3217.9c-7.9-9.9-28.6-25.6-41.7-25.4-2.6,0-15.1,6-17.9,7.6-67.4,38.5-49.1,136.1,13.8,169.9,8.4,4.5,29.4,12.5,38.6,12.3.5,0,1,.1,1.2-.5,2.7-26.8,15.1-51.2,33.6-70.3-29.9,16.5-70.9,4.4-78.9-31-7.1-31.5,19.8-63.6,51.9-51.7,1.1.4,8,4.8,8.3,4.4,1.1-1.1-7.9-13.9-9.1-15.4h0ZM1152.3,3221.5c-1.5,1.2-.7,4.4-.9,6.2-2.3,19.6-11.5,34.6-25.1,48.5-11.8,12-33.3,9-40.4-6.6-5.7-12.6-1-25.4,9.9-33.1-29.4,3.9-36.6,37.5-18.9,58.8,17.5,21.1,49.3,18.3,68.3.9,21.3-19.5,21.5-50.8,7.2-74.6h0ZM1105.7,3241.7c-20.1,2.6-17.1,34.4,3.9,32.4,4.9-.5,6.3-1.4,9.1-3.8,3.4-2.9,5.3-7.1,5.8-12.4.9-10.6-8.1-17.6-18.8-16.2h0ZM1262.8,3398.4c.7.7,11.9-6.1,13.2-7.1,11.3-8.3,26-28.1,27.3-42.3.7-7.9-11.9-27.1-17.3-33.2-51.3-58-145.9-22.8-167.4,46-1,3.1-4.8,18.7-4,20.8.5,1.5,8,1.6,9.8,2,17.1,3.5,32.6,10.7,46.8,20.7l13.3,11.5c-13.4-26-7.7-59.4,19-74,33.8-18.5,76.4,8.8,64,46.3-.5,1.5-5.1,8.8-4.7,9.2h0ZM958.3,3400.7c6.1,39.7,58.3,35.6,71,2,14.5-38.2-21.4-72.7-59.6-68.1-3.2.4-21.4,5.2-22.5,7.5-.1.2-.1.8,0,.8.5.4,10.3,1.1,12.2,1.5,15.8,3.1,31.6,14.2,40.5,27.6,17.9,27-13.7,53.3-35.4,35.2-2.3-1.9-3.9-4.4-6-6.5h0ZM1259.3,3373.6c1.1.5.1-4.6,0-5.2-7-26.2-39.8-29.4-58.6-13.2-29.6,25.5-10.7,73.9,24.4,83.2,11.7,3.1,36.7,1.9,46.4-6.3.3-.2,1-1,.6-1.3s-7.9-.3-9.6-.6c-16.5-2.6-30.2-11.1-40.6-24-26.1-32.3,14.5-60.3,35.9-35.6.5.6,1.6,2.9,1.7,3h0ZM936.4,3351.6c-1.1,0-3.2,0-4,.4-.5.2-5.9,6.3-6.6,7.2-8.2,10.3-13.7,24.5-14.7,37.7,0,.9-.4,10.4.2,10.5.6.1,5.4-9,6.2-10.2,11.1-16.6,28.8-31.1,49-34.3,1.2-.2,10-.5,10.2-1,.2-.8-9.7-5.8-11-6.2-8.4-3.2-20.3-4.7-29.2-3.9h0ZM1070.7,3458.7c13.3-12.5,24-29,29.3-46.7.9-3.1,4.5-18.3,3.7-20.6-.4-1.1-3.3-.6-4.4-.8-25-4.5-47.4-14.7-65.2-33.1-.7-.1-.4.2-.3.6.3,2.7,4.7,10.9,5.6,14.8,7.1,31.6-12.8,62.9-46,64.8-30.8,1.8-55.3-30.4-39.9-58.4.3-.5,2.7-3.5,2.5-3.7-.9-.8-13.9,7.6-15.5,8.8-10.5,8.2-24.5,27.6-25.5,41.1-.4,4.9,7,18.6,9.9,23.1,32.7,50.9,104.4,49,145.8,10h0ZM1306.7,3367.6c-.2-.2-.7,0-1,.3-.6.6-3.7,7.3-4.7,8.9-10.8,16.9-29.2,31.7-49.3,35.1-2.1.4-8,.1-9.4.6-.5.2-.7.6-.4,1.1.6,1.3,12.8,6.6,14.8,7.1,5.2,1.5,25.2,4,29.3,1.7,8.7-5,19-28.8,20.4-38.5.3-2.1,1.1-15.3.3-16.2h0ZM1236.3,3369.4c-20.5,2-19.1,35.4,4.5,32.7,20.1-2.4,16.2-34.7-4.5-32.7ZM979.5,3371.7c-21,1-19.7,32.7.8,32.7,21.8,0,20.9-33.8-.8-32.7ZM1149.9,3402.8c-6.1-3-13-5.8-19.6-7.5-2.4-.6-16.6-3.7-17.8-2.9-.3.2-.2,4.6-.3,5.3-3.6,21.2-12.1,40.8-25.8,57.3-2.2,2.7-5.1,5-7.2,7.8,18.6-9.1,41.4-10.7,58.9,1.6,21.7,15.2,29.9,47.8,11.8,69-10.5,12.3-29.5,17.8-44.7,11.7-1.1-.4-7.1-4.5-7.4-4.2-.8.7,7.8,14,8.9,15.4,8,10.4,27.6,24.5,40.9,25.5,12,.8,35.6-18.6,42.9-27.8,39.6-49.7,13.4-124.4-40.6-151h0ZM1123,3538.2c14.2-.9,26.4-13.7,27.8-27.8,2.3-23.1-15.4-44.3-38.6-45.8-33.6-2.3-58.3,26-56.1,58.8.3,4.7,4.9,24.4,8.2,27.1,1.3,1,.6-3.2.7-4.4,1.5-15.1,7-28.5,17.5-39.4,10.4-11,24.4-20.3,39.3-12.1,16.8,9.3,16.6,33,1.2,43.6h0ZM1107.2,3500.3c-18.7,2.6-17.1,32.7,2.8,32.5,22.7-.3,20.3-35.6-2.8-32.5ZM1084,3519.2c-.6,0-1.2,1.2-1.5,1.8-6,9-8.6,21-8.8,31.7-.2,8.1-1.1,10.3,4.9,15.8,11.5,10.7,29.5,17.3,45.2,17.1,10.8,0,.9-2.8-2.7-5.1-20.7-13-37.8-36-37.1-61.4h0Z"/>
  </g>
  <g class="st7">
    <path class="st5" d="M5006.6,1710c15.4,3.4,30.9,9.8,43.8,19,50.5,36.4,59.8,106.8,12.4,150-40.8,37.2-111.1,19.8-123-36-.2-.7,0-4.9-.8-4.7-.8.2-3.3,13.9-4.4,15.7-24.6,74.2-121.6,99-170.1,33.1-31.4-42.6-7.7-109.2,46.5-116.6-4.9-1.6-9.9-2.5-14.7-4.3-66.7-23.9-97.9-104.7-46.8-159.5,39-41.8,114.2-30,127.9,27.9.2.7.7,7.6,1.4,7.6s2.9-10.4,3.3-11.7c14.1-43.6,52.4-76.9,99.5-75.1,45.8,1.8,88.8,37.9,85.9,86.2-1.8,29.6-21.9,58.4-51.3,66.2-1.2.3-9.4,1.1-9.4,2h0ZM5034.4,1586c-.2.5,2.5,8.2,2.8,9.6,3.6,17.2,2.6,38.8-6.2,54.5-3.4,6-14.1,15.3,1.3,8.6,6.7-2.9,14.1-8.5,19.3-13.6,1.1-1.1,6.8-7.1,7.1-7.9.8-1.9-1.1-13.5-1.7-16-2.9-11.7-9.6-23.6-18.2-32.1-.9-.8-4.1-4-4.5-2.9h0ZM5030.2,1621.6c1.4-12.6-2.2-38.3-11.5-47.4-1.8-1.8-14.9-6.4-18-7.3-74.9-20.4-131,61.5-110.4,129.9,2.7,9.1,11.9,29.6,18.6,36,.4.3.7.8,1.2.5,20.8-17.1,46.8-25.5,73.5-25.9-32.8-9.5-53.2-47.1-33.9-77.7,17.3-27.3,59-30.9,73.3.1.5,1.1,2.3,9,2.8,9,1.6,0,4.3-15.4,4.5-17.3h0ZM5056.8,1653.2c-1.9-.2-3.6,2.6-5,3.7-15.5,12.3-32.6,16.3-52,16.5-16.8.2-30-17.2-23.9-33.2,4.8-12.9,17.2-18.7,30.4-16.4-23.5-18.1-52.4.7-55,28.2-2.6,27.3,21.9,47.8,47.7,48.9,28.9,1.2,51.1-20.8,57.9-47.7h0ZM5009.6,1634.6c-16.1-12.4-36.4,12.2-20.1,25.7,3.8,3.1,5.4,3.5,9.1,3.7,4.5.3,8.8-1.3,12.9-4.7,8.1-6.9,6.7-18.2-1.8-24.7h0ZM5009.8,1856.5c0,1,12.7,4.1,14.3,4.3,13.8,2.1,38.3-1.5,49.2-10.6,6.1-5.1,10.7-27.6,11.2-35.7,4.8-77.3-87-119.3-150.9-85.8-2.9,1.5-16.6,9.8-17.6,11.9-.7,1.4,4.5,6.8,5.6,8.3,9.6,14.6,15.4,30.6,18.5,47.7l1.3,17.6c8.9-27.8,36.6-47.4,65.8-38.8,37,10.9,47.8,60.2,12.5,78.1-1.4.7-9.9,2.6-9.9,3.2h0ZM4792.9,1642.8c-23.8,32.4,16,66.4,48.8,51.6,37.3-16.8,36.3-66.5,6-90.3-2.5-2-18.8-11.4-21.2-10.7-.2,0-.6.5-.6.5,0,.6,6.5,8.1,7.6,9.6,8.9,13.4,12.3,32.4,9.1,48.1-6.5,31.8-47.4,28-49.9-.1-.3-3,.3-5.9.3-8.8h0ZM5024.9,1836.5c.4,1.1,3.3-3.2,3.7-3.8,13.6-23.5-7.4-48.9-32.1-50.8-39-2.9-59.8,44.7-41.6,76,6.1,10.5,24.6,27.3,37.2,28.4.4,0,1.4,0,1.3-.5s-5.4-5.8-6.3-7.2c-9.8-13.6-13.5-29.2-11.8-45.7,4.4-41.3,52.9-32.4,50.6.1,0,.8-1,3.2-.9,3.4h0ZM4812.1,1592.6c-.8-.7-2.3-2.2-3-2.5-.5-.3-8.6.3-9.8.4-13.1,1.5-27,7.6-37,16.3-.7.6-7.6,7.1-7.3,7.5.3.5,10.2-2.6,11.6-2.9,19.6-3.9,42.3-1.6,58.9,10.3,1,.7,7.5,6.7,7.9,6.4.7-.5-2.8-11-3.4-12.2-3.7-8.2-11.1-17.7-17.9-23.4h0ZM4831.4,1763.3c18.3.6,37.5-3.5,53.8-12.3,2.9-1.5,16.1-9.8,17.2-11.9.5-1-1.9-2.7-2.5-3.7-14.5-20.9-23.1-43.9-22.7-69.5-.4-.6-.4,0-.7.2-1.7,2.1-4.4,11-6.6,14.4-17.3,27.4-53.5,35.4-78.3,13.3-23-20.5-17.6-60.6,13.1-69.6.5-.2,4.4-.6,4.4-.8,0-1.3-15.2-4.5-17.2-4.7-13.2-1.7-36.9,2.2-47.1,11-3.7,3.2-8.2,18.1-9.3,23.3-12.8,59.1,39.2,108.4,96,110.2h0ZM5062.6,1865.7c0-.3-.5-.5-.9-.5-.9,0-7.8,2.6-9.6,3-19.6,4.3-43.1,1.7-59.7-10.1-1.7-1.2-5.7-5.6-7.1-6.2-.5-.2-.9,0-1.1.4-.5,1.3,4.4,13.7,5.4,15.5,2.7,4.8,15,20.7,19.6,21.9,9.7,2.6,33.8-6.9,41.7-12.9,1.7-1.3,11.6-10.1,11.7-11.3h0ZM5011.6,1817.2c-15.9-13.1-38.6,11.5-19.9,26.3,15.9,12.5,36-13,19.9-26.3ZM4828.4,1637.2c-15.6-14.1-37.1,9.2-22.6,23.7,15.4,15.4,38.7-9.1,22.6-23.7ZM4926.9,1779.8c-2.2-6.5-5.1-13.3-8.5-19.2-1.2-2.1-9.1-14.4-10.5-14.7-.4,0-3.4,3.1-4,3.5-17.5,12.5-37.4,20.3-58.7,22.2-3.5.3-7.1-.1-10.6.4,19.5,6.7,36.8,21.7,40.5,42.8,4.6,26-12.7,55-40.4,57.1-16.1,1.2-33.5-8.2-39.9-23.3-.5-1.1-1.8-8.2-2.2-8.2-1.1,0-4.4,15.4-4.6,17.2-1.7,13,2.2,36.9,10.9,46.9,7.9,9.1,38.3,12,50,10.7,63.1-7.1,97.5-78.5,78.1-135.5h0ZM4812.2,1856.5c10.7,9.4,28.3,9,39.3,0,18-14.7,20.4-42.2,5.1-59.7-22.1-25.4-59.6-22.9-81.3,1.9-3.1,3.5-13.8,20.7-13.4,25,.2,1.6,2.7-1.9,3.6-2.6,11.7-9.6,25.1-15.1,40.2-15.5s31.6,2.9,36.3,19.3c5.3,18.4-11.6,35.1-30,31.6h0ZM4827.7,1818.5c-15-11.4-35.2,11-21,24.9,16.2,15.8,39.5-10.9,21-24.9ZM4798,1815.5c-.4-.5-1.7,0-2.3.2-10.6,2.2-20.9,8.8-28.7,16.2-5.8,5.6-8,6.5-7.7,14.6.5,15.7,8.7,33.1,19.8,44.1,7.7,7.6,2.6-1.4,1.7-5.5-5.4-23.8-1.3-52.2,17.2-69.6h0Z"/>
  </g>
  <g class="st7">
    <path class="st5" d="M5015.2,4918.7c15.4,3.4,30.9,9.8,43.8,19,50.5,36.4,59.8,106.8,12.4,150-40.8,37.2-111.1,19.8-123-36-.2-.7,0-4.9-.8-4.7-.8.2-3.3,13.9-4.4,15.7-24.6,74.2-121.6,99-170.1,33.1-31.4-42.6-7.7-109.2,46.5-116.6-4.9-1.6-9.9-2.5-14.7-4.3-66.7-23.9-97.9-104.7-46.8-159.5,39-41.8,114.2-30,127.9,27.9.2.7.7,7.6,1.4,7.6s2.9-10.4,3.3-11.7c14.1-43.6,52.4-76.9,99.5-75.1,45.8,1.8,88.8,37.9,85.9,86.2-1.8,29.6-21.9,58.4-51.3,66.2-1.2.3-9.4,1.1-9.4,2h0ZM5043,4794.8c-.2.5,2.5,8.2,2.8,9.6,3.6,17.2,2.6,38.8-6.2,54.5-3.4,6-14.1,15.3,1.3,8.6,6.7-2.9,14.1-8.5,19.3-13.6,1.1-1.1,6.8-7.1,7.1-7.9.8-1.9-1.1-13.5-1.7-16-2.9-11.7-9.6-23.6-18.2-32.1-.9-.8-4.1-4-4.5-2.9h0ZM5038.8,4830.3c1.4-12.6-2.2-38.3-11.5-47.4-1.8-1.8-14.9-6.4-18-7.3-74.9-20.4-131,61.5-110.4,129.9,2.7,9.1,11.9,29.6,18.6,36,.4.3.7.8,1.2.5,20.8-17.1,46.8-25.5,73.5-25.9-32.8-9.5-53.2-47.1-33.9-77.7,17.3-27.3,59-30.9,73.3.1.5,1.1,2.3,9,2.8,9,1.6,0,4.3-15.4,4.5-17.3h0ZM5065.4,4862c-1.9-.2-3.6,2.6-5,3.7-15.5,12.3-32.6,16.3-52,16.5-16.8.2-30-17.2-23.9-33.2,4.8-12.9,17.2-18.7,30.4-16.4-23.5-18.1-52.4.7-55,28.2-2.6,27.3,21.9,47.8,47.7,48.9,28.9,1.2,51.1-20.8,57.9-47.7h0ZM5018.2,4843.3c-16.1-12.4-36.4,12.2-20.1,25.7,3.8,3.1,5.4,3.5,9.1,3.7,4.5.3,8.8-1.3,12.9-4.7,8.1-6.9,6.7-18.2-1.8-24.7h0ZM5018.5,5065.2c0,1,12.7,4.1,14.3,4.3,13.8,2.1,38.3-1.5,49.2-10.6,6.1-5.1,10.7-27.6,11.2-35.7,4.8-77.3-87-119.3-150.9-85.8-2.9,1.5-16.6,9.8-17.6,11.9-.7,1.4,4.5,6.8,5.6,8.3,9.6,14.6,15.4,30.6,18.5,47.7l1.3,17.6c8.9-27.8,36.6-47.4,65.8-38.8,37,10.9,47.8,60.2,12.5,78.1-1.4.7-9.9,2.6-9.9,3.2h0ZM4801.5,4851.5c-23.8,32.4,16,66.4,48.8,51.6,37.3-16.8,36.3-66.5,6-90.3-2.5-2-18.8-11.4-21.2-10.7-.2,0-.6.5-.6.5,0,.6,6.5,8.1,7.6,9.6,8.9,13.4,12.3,32.4,9.1,48.1-6.5,31.8-47.4,28-49.9-.1-.3-3,.3-5.9.3-8.8h0ZM5033.5,5045.3c.4,1.1,3.3-3.2,3.7-3.8,13.6-23.5-7.4-48.9-32.1-50.8-39-2.9-59.8,44.7-41.6,76,6.1,10.5,24.6,27.3,37.2,28.4.4,0,1.4,0,1.3-.5s-5.4-5.8-6.3-7.2c-9.8-13.6-13.5-29.2-11.8-45.7,4.4-41.3,52.9-32.4,50.6.1,0,.8-1,3.2-.9,3.4h0ZM4820.8,4801.3c-.8-.7-2.3-2.2-3-2.5-.5-.3-8.6.3-9.8.4-13.1,1.5-27,7.6-37,16.3-.7.6-7.6,7.1-7.3,7.5.3.5,10.2-2.6,11.6-2.9,19.6-3.9,42.3-1.6,58.9,10.3,1,.7,7.5,6.7,7.9,6.4.7-.5-2.8-11-3.4-12.2-3.7-8.2-11.1-17.7-17.9-23.4h0ZM4840,4972c18.3.6,37.5-3.5,53.8-12.3,2.9-1.5,16.1-9.8,17.2-11.9.5-1-1.9-2.7-2.5-3.7-14.5-20.9-23.1-43.9-22.7-69.5-.4-.6-.4,0-.7.2-1.7,2.1-4.4,11-6.6,14.4-17.3,27.4-53.5,35.4-78.3,13.3-23-20.5-17.6-60.6,13.1-69.6.5-.2,4.4-.6,4.4-.8,0-1.3-15.2-4.5-17.2-4.7-13.2-1.7-36.9,2.2-47.1,11-3.7,3.2-8.2,18.1-9.3,23.3-12.8,59.1,39.2,108.4,96,110.2h0ZM5071.3,5074.5c0-.3-.5-.5-.9-.5-.9,0-7.8,2.6-9.6,3-19.6,4.3-43.1,1.7-59.7-10.1-1.7-1.2-5.7-5.6-7.1-6.2-.5-.2-.9,0-1.1.4-.5,1.3,4.4,13.7,5.4,15.5,2.7,4.8,15,20.7,19.6,21.9,9.7,2.6,33.8-6.9,41.7-12.9,1.7-1.3,11.6-10.1,11.7-11.3h0ZM5020.2,5026c-15.9-13.1-38.6,11.5-19.9,26.3,15.9,12.5,36-13,19.9-26.3ZM4837,4846c-15.6-14.1-37.1,9.2-22.6,23.7,15.4,15.4,38.7-9.1,22.6-23.7ZM4935.5,4988.5c-2.2-6.5-5.1-13.3-8.5-19.2-1.2-2.1-9.1-14.4-10.5-14.7-.4,0-3.4,3.1-4,3.5-17.5,12.5-37.4,20.3-58.7,22.2-3.5.3-7.1-.1-10.6.4,19.5,6.7,36.8,21.7,40.5,42.8,4.6,26-12.7,55-40.4,57.1-16.1,1.2-33.5-8.2-39.9-23.3-.5-1.1-1.8-8.2-2.2-8.2-1.1,0-4.4,15.4-4.6,17.2-1.7,13,2.2,36.9,10.9,46.9,7.9,9.1,38.3,12,50,10.7,63.1-7.1,97.5-78.5,78.1-135.5h0ZM4820.8,5065.2c10.7,9.4,28.3,9,39.3,0,18-14.7,20.4-42.2,5.1-59.7-22.1-25.4-59.6-22.9-81.3,1.9-3.1,3.5-13.8,20.7-13.4,25,.2,1.6,2.7-1.9,3.6-2.6,11.7-9.6,25.1-15.1,40.2-15.5,15.1-.4,31.6,2.9,36.3,19.3,5.3,18.4-11.6,35.1-30,31.6h0ZM4836.4,5027.2c-15-11.4-35.2,11-21,24.9,16.2,15.8,39.5-10.9,21-24.9ZM4806.6,5024.2c-.4-.5-1.7,0-2.3.2-10.6,2.2-20.9,8.8-28.7,16.2-5.8,5.6-8,6.5-7.7,14.6.5,15.7,8.7,33.1,19.8,44.1,7.7,7.6,2.6-1.4,1.7-5.5-5.4-23.8-1.3-52.2,17.2-69.6h0Z"/>
  </g>
  <g class="st7">
    <path class="st5" d="M1827.9,4868.4c15.4,3.4,30.9,9.8,43.8,19,50.5,36.4,59.8,106.8,12.4,150-40.8,37.2-111.1,19.8-123-36-.2-.7,0-4.9-.8-4.7-.8.2-3.3,13.9-4.4,15.7-24.6,74.2-121.6,99-170.1,33.1-31.4-42.6-7.7-109.2,46.5-116.6-4.9-1.6-9.9-2.5-14.7-4.3-66.7-23.9-97.9-104.7-46.8-159.5,39-41.8,114.2-30,127.9,27.9.2.7.7,7.6,1.4,7.6s2.9-10.4,3.3-11.7c14.1-43.6,52.4-76.9,99.5-75.1,45.8,1.8,88.8,37.9,85.9,86.2-1.8,29.6-21.9,58.4-51.3,66.2-1.2.3-9.4,1.1-9.4,2h0ZM1855.7,4744.4c-.2.5,2.5,8.2,2.8,9.6,3.6,17.2,2.6,38.8-6.2,54.5-3.4,6-14.1,15.3,1.3,8.6,6.7-2.9,14.1-8.5,19.3-13.6,1.1-1.1,6.8-7.1,7.1-7.9.8-1.9-1.1-13.5-1.7-16-2.9-11.7-9.6-23.6-18.2-32.1-.9-.8-4.1-4-4.5-2.9h0ZM1851.5,4780c1.4-12.6-2.2-38.3-11.5-47.4-1.8-1.8-14.9-6.4-18-7.3-74.9-20.4-131,61.5-110.4,129.9,2.7,9.1,11.9,29.6,18.6,36,.4.3.7.8,1.2.5,20.8-17.1,46.8-25.5,73.5-25.9-32.8-9.5-53.2-47.1-33.9-77.7,17.3-27.3,59-30.9,73.3.1.5,1.1,2.3,9,2.8,9,1.6,0,4.3-15.4,4.5-17.3h0ZM1878.1,4811.6c-1.9-.2-3.6,2.6-5,3.7-15.5,12.3-32.6,16.3-52,16.5-16.8.2-30-17.2-23.9-33.2,4.8-12.9,17.2-18.7,30.4-16.4-23.5-18.1-52.4.7-55,28.2-2.6,27.3,21.9,47.8,47.7,48.9,28.9,1.2,51.1-20.8,57.9-47.7h0ZM1830.9,4793c-16.1-12.4-36.4,12.2-20.1,25.7,3.8,3.1,5.4,3.5,9.1,3.7,4.5.3,8.8-1.3,12.9-4.7,8.1-6.9,6.7-18.2-1.8-24.7h0ZM1831.2,5014.9c0,1,12.7,4.1,14.3,4.3,13.8,2.1,38.3-1.5,49.2-10.6,6.1-5.1,10.7-27.6,11.2-35.7,4.8-77.3-87-119.3-150.9-85.8-2.9,1.5-16.6,9.8-17.6,11.9-.7,1.4,4.5,6.8,5.6,8.3,9.6,14.6,15.4,30.6,18.5,47.7l1.3,17.6c8.9-27.8,36.6-47.4,65.8-38.8,37,10.9,47.8,60.2,12.5,78.1-1.4.7-9.9,2.6-9.9,3.2h0ZM1614.2,4801.2c-23.8,32.4,16,66.4,48.8,51.6,37.3-16.8,36.3-66.5,6-90.3-2.5-2-18.8-11.4-21.2-10.7-.2,0-.6.5-.6.5,0,.6,6.5,8.1,7.6,9.6,8.9,13.4,12.3,32.4,9.1,48.1-6.5,31.8-47.4,28-49.9-.1-.3-3,.3-5.9.3-8.8h0ZM1846.2,4994.9c.4,1.1,3.3-3.2,3.7-3.8,13.6-23.5-7.4-48.9-32.1-50.8-39-2.9-59.8,44.7-41.6,76,6.1,10.5,24.6,27.3,37.2,28.4.4,0,1.4,0,1.3-.5s-5.4-5.8-6.3-7.2c-9.8-13.6-13.5-29.2-11.8-45.7,4.4-41.3,52.9-32.4,50.6.1,0,.8-1,3.2-.9,3.4h0ZM1633.5,4751c-.8-.7-2.3-2.2-3-2.5-.5-.3-8.6.3-9.8.4-13.1,1.5-27,7.6-37,16.3-.7.6-7.6,7.1-7.3,7.5.3.5,10.2-2.6,11.6-2.9,19.6-3.9,42.3-1.6,58.9,10.3,1,.7,7.5,6.7,7.9,6.4.7-.5-2.8-11-3.4-12.2-3.7-8.2-11.1-17.7-17.9-23.4h0ZM1652.7,4921.7c18.3.6,37.5-3.5,53.8-12.3,2.9-1.5,16.1-9.8,17.2-11.9.5-1-1.9-2.7-2.5-3.7-14.5-20.9-23.1-43.9-22.7-69.5-.4-.6-.4,0-.7.2-1.7,2.1-4.4,11-6.6,14.4-17.3,27.4-53.5,35.4-78.3,13.3-23-20.5-17.6-60.6,13.1-69.6.5-.2,4.4-.6,4.4-.8,0-1.3-15.2-4.5-17.2-4.7-13.2-1.7-36.9,2.2-47.1,11-3.7,3.2-8.2,18.1-9.3,23.3-12.8,59.1,39.2,108.4,96,110.2h0ZM1884,5024.1c0-.3-.5-.5-.9-.5-.9,0-7.8,2.6-9.6,3-19.6,4.3-43.1,1.7-59.7-10.1-1.7-1.2-5.7-5.6-7.1-6.2-.5-.2-.9,0-1.1.4-.5,1.3,4.4,13.7,5.4,15.5,2.7,4.8,15,20.7,19.6,21.9,9.7,2.6,33.8-6.9,41.7-12.9,1.7-1.3,11.6-10.1,11.7-11.3h0ZM1832.9,4975.6c-15.9-13.1-38.6,11.5-19.9,26.3,15.9,12.5,36-13,19.9-26.3ZM1649.7,4795.6c-15.6-14.1-37.1,9.2-22.6,23.7,15.4,15.4,38.7-9.1,22.6-23.7ZM1748.2,4938.2c-2.2-6.5-5.1-13.3-8.5-19.2-1.2-2.1-9.1-14.4-10.5-14.7-.4,0-3.4,3.1-4,3.5-17.5,12.5-37.4,20.3-58.7,22.2-3.5.3-7.1-.1-10.6.4,19.5,6.7,36.8,21.7,40.5,42.8,4.6,26-12.7,55-40.4,57.1-16.1,1.2-33.5-8.2-39.9-23.3-.5-1.1-1.8-8.2-2.2-8.2-1.1,0-4.4,15.4-4.6,17.2-1.7,13,2.2,36.9,10.9,46.9,7.9,9.1,38.3,12,50,10.7,63.1-7.1,97.5-78.5,78.1-135.5h0ZM1633.5,5014.9c10.7,9.4,28.3,9,39.3,0,18-14.7,20.4-42.2,5.1-59.7-22.1-25.4-59.6-22.9-81.3,1.9-3.1,3.5-13.8,20.7-13.4,25,.2,1.6,2.7-1.9,3.6-2.6,11.7-9.6,25.1-15.1,40.2-15.5s31.6,2.9,36.3,19.3c5.3,18.4-11.6,35.1-30,31.6h0ZM1649.1,4976.9c-15-11.4-35.2,11-21,24.9,16.2,15.8,39.5-10.9,21-24.9ZM1619.3,4973.9c-.4-.5-1.7,0-2.3.2-10.6,2.2-20.9,8.8-28.7,16.2-5.8,5.6-8,6.5-7.7,14.6.5,15.7,8.7,33.1,19.8,44.1,7.7,7.6,2.6-1.4,1.7-5.5-5.4-23.8-1.3-52.2,17.2-69.6h0Z"/>
  </g>
  <g class="st7">
    <path class="st5" d="M1835.2,1762.4c15.4,3.4,30.9,9.8,43.8,19,50.5,36.4,59.8,106.8,12.4,150-40.8,37.2-111.1,19.8-123-36-.2-.7,0-4.9-.8-4.7-.8.2-3.3,13.9-4.4,15.7-24.6,74.2-121.6,99-170.1,33.1-31.4-42.6-7.7-109.2,46.5-116.6-4.9-1.6-9.9-2.5-14.7-4.3-66.7-23.9-97.9-104.7-46.8-159.5,39-41.8,114.2-30,127.9,27.9.2.7.7,7.6,1.4,7.6s2.9-10.4,3.3-11.7c14.1-43.6,52.4-76.9,99.5-75.1,45.8,1.8,88.8,37.9,85.9,86.2-1.8,29.6-21.9,58.4-51.3,66.2-1.2.3-9.4,1.1-9.4,2h0ZM1863,1638.5c-.2.5,2.5,8.2,2.8,9.6,3.6,17.2,2.6,38.8-6.2,54.5-3.4,6-14.1,15.3,1.3,8.6,6.7-2.9,14.1-8.5,19.3-13.6,1.1-1.1,6.8-7.1,7.1-7.9.8-1.9-1.1-13.5-1.7-16-2.9-11.7-9.6-23.6-18.2-32.1-.9-.8-4.1-4-4.5-2.9h0ZM1858.8,1674c1.4-12.6-2.2-38.3-11.5-47.4-1.8-1.8-14.9-6.4-18-7.3-74.9-20.4-131,61.5-110.4,129.9,2.7,9.1,11.9,29.6,18.6,36,.4.3.7.8,1.2.5,20.8-17.1,46.8-25.5,73.5-25.9-32.8-9.5-53.2-47.1-33.9-77.7,17.3-27.3,59-30.9,73.3.1.5,1.1,2.3,9,2.8,9,1.6,0,4.3-15.4,4.5-17.3h0ZM1885.4,1705.7c-1.9-.2-3.6,2.6-5,3.7-15.5,12.3-32.6,16.3-52,16.5-16.8.2-30-17.2-23.9-33.2,4.8-12.9,17.2-18.7,30.4-16.4-23.5-18.1-52.4.7-55,28.2-2.6,27.3,21.9,47.8,47.7,48.9,28.9,1.2,51.1-20.8,57.9-47.7h0ZM1838.2,1687.1c-16.1-12.4-36.4,12.2-20.1,25.7,3.8,3.1,5.4,3.5,9.1,3.7,4.5.3,8.8-1.3,12.9-4.7,8.1-6.9,6.7-18.2-1.8-24.7h0ZM1838.5,1908.9c0,1,12.7,4.1,14.3,4.3,13.8,2.1,38.3-1.5,49.2-10.6,6.1-5.1,10.7-27.6,11.2-35.7,4.8-77.3-87-119.3-150.9-85.8-2.9,1.5-16.6,9.8-17.6,11.9-.7,1.4,4.5,6.8,5.6,8.3,9.6,14.6,15.4,30.6,18.5,47.7l1.3,17.6c8.9-27.8,36.6-47.4,65.8-38.8,37,10.9,47.8,60.2,12.5,78.1-1.4.7-9.9,2.6-9.9,3.2h0ZM1621.5,1695.2c-23.8,32.4,16,66.4,48.8,51.6,37.3-16.8,36.3-66.5,6-90.3-2.5-2-18.8-11.4-21.2-10.7-.2,0-.6.5-.6.5,0,.6,6.5,8.1,7.6,9.6,8.9,13.4,12.3,32.4,9.1,48.1-6.5,31.8-47.4,28-49.9-.1-.3-3,.3-5.9.3-8.8h0ZM1853.5,1889c.4,1.1,3.3-3.2,3.7-3.8,13.6-23.5-7.4-48.9-32.1-50.8-39-2.9-59.8,44.7-41.6,76,6.1,10.5,24.6,27.3,37.2,28.4.4,0,1.4,0,1.3-.5s-5.4-5.8-6.3-7.2c-9.8-13.6-13.5-29.2-11.8-45.7,4.4-41.3,52.9-32.4,50.6.1,0,.8-1,3.2-.9,3.4h0ZM1640.8,1645c-.8-.7-2.3-2.2-3-2.5-.5-.3-8.6.3-9.8.4-13.1,1.5-27,7.6-37,16.3-.7.6-7.6,7.1-7.3,7.5.3.5,10.2-2.6,11.6-2.9,19.6-3.9,42.3-1.6,58.9,10.3,1,.7,7.5,6.7,7.9,6.4.7-.5-2.8-11-3.4-12.2-3.7-8.2-11.1-17.7-17.9-23.4h0ZM1660,1815.7c18.3.6,37.5-3.5,53.8-12.3,2.9-1.5,16.1-9.8,17.2-11.9.5-1-1.9-2.7-2.5-3.7-14.5-20.9-23.1-43.9-22.7-69.5-.4-.6-.4,0-.7.2-1.7,2.1-4.4,11-6.6,14.4-17.3,27.4-53.5,35.4-78.3,13.3-23-20.5-17.6-60.6,13.1-69.6.5-.2,4.4-.6,4.4-.8,0-1.3-15.2-4.5-17.2-4.7-13.2-1.7-36.9,2.2-47.1,11-3.7,3.2-8.2,18.1-9.3,23.3-12.8,59.1,39.2,108.4,96,110.2h0ZM1891.3,1918.2c0-.3-.5-.5-.9-.5-.9,0-7.8,2.6-9.6,3-19.6,4.3-43.1,1.7-59.7-10.1-1.7-1.2-5.7-5.6-7.1-6.2-.5-.2-.9,0-1.1.4-.5,1.3,4.4,13.7,5.4,15.5,2.7,4.8,15,20.7,19.6,21.9,9.7,2.6,33.8-6.9,41.7-12.9,1.7-1.3,11.6-10.1,11.7-11.3h0ZM1840.2,1869.7c-15.9-13.1-38.6,11.5-19.9,26.3,15.9,12.5,36-13,19.9-26.3ZM1657,1689.7c-15.6-14.1-37.1,9.2-22.6,23.7,15.4,15.4,38.7-9.1,22.6-23.7ZM1755.5,1832.2c-2.2-6.5-5.1-13.3-8.5-19.2-1.2-2.1-9.1-14.4-10.5-14.7-.4,0-3.4,3.1-4,3.5-17.5,12.5-37.4,20.3-58.7,22.2-3.5.3-7.1-.1-10.6.4,19.5,6.7,36.8,21.7,40.5,42.8,4.6,26-12.7,55-40.4,57.1-16.1,1.2-33.5-8.2-39.9-23.3-.5-1.1-1.8-8.2-2.2-8.2-1.1,0-4.4,15.4-4.6,17.2-1.7,13,2.2,36.9,10.9,46.9,7.9,9.1,38.3,12,50,10.7,63.1-7.1,97.5-78.5,78.1-135.5h0ZM1640.8,1908.9c10.7,9.4,28.3,9,39.3,0,18-14.7,20.4-42.2,5.1-59.7-22.1-25.4-59.6-22.9-81.3,1.9-3.1,3.5-13.8,20.7-13.4,25,.2,1.6,2.7-1.9,3.6-2.6,11.7-9.6,25.1-15.1,40.2-15.5,15.1-.4,31.6,2.9,36.3,19.3,5.3,18.4-11.6,35.1-30,31.6h0ZM1656.4,1870.9c-15-11.4-35.2,11-21,24.9,16.2,15.8,39.5-10.9,21-24.9ZM1626.6,1867.9c-.4-.5-1.7,0-2.3.2-10.6,2.2-20.9,8.8-28.7,16.2-5.8,5.6-8,6.5-7.7,14.6.5,15.7,8.7,33.1,19.8,44.1,7.7,7.6,2.6-1.4,1.7-5.5-5.4-23.8-1.3-52.2,17.2-69.6h0Z"/>
  </g>
  <text class="st9" transform="translate(2720.9 3329)"><tspan class="st0"><tspan x="0" y="0">AIND</tspan></tspan><tspan class="st6"><tspan x="-532.7" y="480">QC PORTAL</tspan></tspan></text>
</svg>